<?xml version="1.0" encoding="utf-8"?>
<!-- Generator: Adobe Illustrator 18.1.1, SVG Export Plug-In . SVG Version: 6.00 Build 0)  -->
<!DOCTYPE svg PUBLIC "-//W3C//DTD SVG 1.1//EN" "http://www.w3.org/Graphics/SVG/1.1/DTD/svg11.dtd">
<svg version="1.1" id="Layer_1" xmlns="http://www.w3.org/2000/svg" xmlns:xlink="http://www.w3.org/1999/xlink" x="0px" y="0px"
	 width="512px" height="512px" viewBox="-31 -118 512 512" enable-background="new -31 -118 512 512" xml:space="preserve">
<g id="icomoon-ignore">
</g>
<path fill="#FFFFFF" d="M265,106h-8V10c0-52.9-43.1-96-96-96H97C44.1-86,1-42.9,1,10v96h-8c-13.2,0-24,10.8-24,24v240
	c0,13.2,10.8,24,24,24h272c13.2,0,24-10.8,24-24V130C289,116.8,278.2,106,265,106z M65,10c0-17.6,14.4-32,32-32h64
	c17.6,0,32,14.4,32,32v96H65V10z"/>
</svg>
