<?xml version="1.0" encoding="utf-8"?>
<!-- Generator: Adobe Illustrator 18.1.1, SVG Export Plug-In . SVG Version: 6.00 Build 0)  -->
<!DOCTYPE svg PUBLIC "-//W3C//DTD SVG 1.1//EN" "http://www.w3.org/Graphics/SVG/1.1/DTD/svg11.dtd">
<svg version="1.1" id="Layer_1" xmlns="http://www.w3.org/2000/svg" xmlns:xlink="http://www.w3.org/1999/xlink" x="0px" y="0px"
	 width="512px" height="512px" viewBox="-31 -118 512 512" enable-background="new -31 -118 512 512" xml:space="preserve">
<g id="icomoon-ignore">
</g>
<path fill="#FFFFFF" d="M353-86c52.9,0,96,43.1,96,96v96h-64V10c0-17.6-14.4-32-32-32h-64c-17.6,0-32,14.4-32,32v96h8
	c13.2,0,24,10.8,24,24v240c0,13.2-10.8,24-24,24H-7c-13.2,0-24-10.8-24-24V130c0-13.2,10.8-24,24-24h200V10c0-52.9,43.1-96,96-96
	H353z"/>
</svg>
