<?xml version="1.0" encoding="utf-8"?>
<!-- Generator: Adobe Illustrator 18.1.1, SVG Export Plug-In . SVG Version: 6.00 Build 0)  -->
<!DOCTYPE svg PUBLIC "-//W3C//DTD SVG 1.1//EN" "http://www.w3.org/Graphics/SVG/1.1/DTD/svg11.dtd">
<svg version="1.1" id="Layer_1" xmlns="http://www.w3.org/2000/svg" xmlns:xlink="http://www.w3.org/1999/xlink" x="0px" y="0px"
	 width="512px" height="512px" viewBox="-31 -118 512 512" enable-background="new -31 -118 512 512" xml:space="preserve">
<g id="icomoon-ignore">
</g>
<path fill="#FFFFFF" d="M161-86h320v64H161V-86z M161,106h320v64H161V106z M161,298h320v64H161V298z M-31-54c0-35.3,28.7-64,64-64
	s64,28.7,64,64S68.3,10,33,10S-31-18.7-31-54z M-31,138c0-35.3,28.7-64,64-64s64,28.7,64,64s-28.7,64-64,64S-31,173.3-31,138z
	 M-31,330c0-35.3,28.7-64,64-64s64,28.7,64,64s-28.7,64-64,64S-31,365.3-31,330z"/>
</svg>
